<svg xmlns="http://www.w3.org/2000/svg" width="256" height="256" viewBox="0 0 256 256">
  <path fill="#41D1FF" d="M255.54,88.24,136.2,2.93a18.2,18.2,0,0,0-16.4,0L.46,88.24a18.2,18.2,0,0,0,8.2,33.21l37.4,11.19L32,245.07a18.2,18.2,0,0,0,18.1,20.43H205.9a18.2,18.2,0,0,0,18.1-20.43L210,132.64l37.4-11.19a18.2,18.2,0,0,0,8.14-33.21Z"/>
  <path fill="#31475B" d="M128,14.33,237.8,88.24,128,256,18.2,88.24Z"/>
  <path fill="#00D8FF" d="M128,14.33,18.2,88.24,128,256Z"/>
  <path fill="#31475B" d="m183.3,151.8-55.3,85.9-55.3-85.9L128,256Z"/>
  <path fill="#00D8FF" d="m72.7,151.8,55.3,85.9V151.8Z"/>
</svg>
